<svg width="48" height="38" viewBox="0 0 48 38" fill="none" xmlns="http://www.w3.org/2000/svg">
<rect width="48" height="38" fill="#EDEDED"/>
<g id="Home-1 desktop" clip-path="url(#clip0_964_5456)">
<rect width="1440" height="4981" transform="translate(-954 -1017)" fill="white"/>
<g id="Features-3">
<rect width="1440" height="813" transform="translate(-954 -337)" fill="#252B42"/>
<g id="div">
<g id="container">
<g id="row">
<g id="col-md-4">
<g id="card-item">
<rect x="-39.5" y="-39.5" width="327" height="192" fill="white"/>
<g id="flex-row" clip-path="url(#clip1_964_5456)">
<g id="icn settings .icn-lg">
<g id="carbon:notebook" clip-path="url(#clip2_964_5456)">
<path id="Vector" d="M29.1416 8.62402H41.1395V12.0693H29.1416V8.62402Z" fill="#00A0C1"/>
<path id="Vector_2" d="M29.1416 17.2373H41.1395V20.6826H29.1416V17.2373Z" fill="#00A0C1"/>
<path id="Vector_3" d="M29.1416 25.8506H41.1395V29.2959H29.1416V25.8506Z" fill="#00A0C1"/>
<path id="Vector_4" d="M44.5674 0.0112305H3.43187C2.52299 0.0121426 1.65161 0.375424 1.00893 1.02135C0.366264 1.66727 0.00481376 2.54307 0.00390625 3.45655V34.4644C0.00481376 35.3779 0.366264 36.2537 1.00893 36.8996C1.65161 37.5455 2.52299 37.9088 3.43187 37.9097H44.5674C45.4761 37.9084 46.3472 37.5449 46.9898 36.8991C47.6324 36.2533 47.994 35.3777 47.9953 34.4644V3.45655C47.9944 2.54307 47.633 1.66727 46.9903 1.02135C46.3477 0.375424 45.4763 0.0121426 44.5674 0.0112305ZM3.43187 3.45655H22.2856V34.4644H3.43187V3.45655ZM25.7136 34.4644V3.45655H44.5674L44.5708 34.4644H25.7136Z" fill="#00A0C1"/>
</g>
</g>
</g>
<rect x="-39.5" y="-39.5" width="327" height="192" stroke="#E8E8E8"/>
</g>
</g>
</g>
</g>
</g>
</g>
</g>
<defs>
<clipPath id="clip0_964_5456">
<rect width="1440" height="4981" fill="white" transform="translate(-954 -1017)"/>
</clipPath>
<clipPath id="clip1_964_5456">
<rect width="209" height="48" fill="white" transform="translate(0 -5)"/>
</clipPath>
<clipPath id="clip2_964_5456">
<rect width="48" height="37.92" fill="white"/>
</clipPath>
</defs>
</svg>
